<svg xmlns="http://www.w3.org/2000/svg" width="39" height="38" viewBox="0 0 39 38" fill="none">
  <g clip-path="url(#clip0_4293_22140)">
    <path d="M16.7753 21.0222H15.3765V16.9778H16.7753V21.0222ZM18.1627 19.5311H16.681V18.4104H18.1627V19.5311ZM18.0685 16.9778H19.4673V21.0222H18.0685V16.9778Z" fill="black"/>
    <path d="M21.691 21.1111C21.3515 21.1119 21.0131 21.0734 20.683 20.9962C20.4022 20.9356 20.1324 20.8342 19.8824 20.6955L20.3333 19.7036C20.5412 19.8196 20.7631 19.9099 20.9939 19.9725C21.2241 20.0382 21.4626 20.0724 21.7024 20.074C21.809 20.0764 21.9155 20.0677 22.0202 20.0481C22.082 20.0377 22.14 20.0122 22.189 19.974C22.2061 19.9591 22.2197 19.9409 22.2288 19.9204C22.238 19.9 22.2426 19.8778 22.2422 19.8555C22.2409 19.8179 22.2284 19.7816 22.2063 19.7508C22.1841 19.72 22.1533 19.6962 22.1175 19.6822C22.0131 19.6327 21.9024 19.5969 21.7884 19.5755C21.652 19.5469 21.503 19.516 21.3413 19.4829C21.1756 19.4496 21.012 19.4063 20.8517 19.3533C20.6925 19.3015 20.5409 19.2296 20.4009 19.1392C20.2642 19.0501 20.1515 18.9302 20.0725 18.7896C19.9838 18.6231 19.9409 18.437 19.9478 18.2496C19.946 18.0053 20.0214 17.7663 20.1637 17.5651C20.3273 17.3446 20.5512 17.1734 20.8099 17.0711C21.1501 16.9392 21.5145 16.8772 21.8803 16.8888C22.1594 16.8888 22.4377 16.9176 22.7105 16.9748C22.9678 17.027 23.2157 17.1167 23.4457 17.2407L23.0253 18.2288C22.8347 18.1354 22.6351 18.061 22.4292 18.0066C22.2466 17.958 22.0582 17.9331 21.8689 17.9325C21.7611 17.9295 21.6534 17.9412 21.5489 17.9674C21.4844 17.9818 21.4256 18.0139 21.3793 18.0599C21.3472 18.095 21.3294 18.1403 21.3292 18.1874C21.331 18.2237 21.3438 18.2587 21.366 18.2879C21.3882 18.3172 21.4187 18.3394 21.4539 18.3518C21.5587 18.399 21.6693 18.4328 21.783 18.4525C21.9191 18.4799 22.0696 18.5088 22.2331 18.5392C22.3991 18.5707 22.5627 18.6133 22.7227 18.6666C22.8807 18.7189 23.0311 18.7905 23.1705 18.8799C23.3064 18.9687 23.4189 19.0875 23.4989 19.2266C23.5874 19.3903 23.6303 19.5736 23.6236 19.7585C23.6245 20.0008 23.5491 20.2376 23.4077 20.437C23.2446 20.6578 23.0216 20.8299 22.7637 20.934C22.4794 21.052 22.1218 21.1111 21.691 21.1111Z" fill="black"/>
    <path d="M21.9305 30.2371H17.0292C16.2376 30.2371 15.4785 30.5435 14.9187 31.0888C14.359 31.6342 14.0446 32.3739 14.0446 33.1452V36.7585C14.0446 36.9045 14.1041 37.0445 14.21 37.1477C14.3159 37.2509 14.4596 37.3089 14.6094 37.3089H24.3495C24.4238 37.309 24.4973 37.2948 24.5659 37.2672C24.6345 37.2396 24.6969 37.1991 24.7494 37.148C24.802 37.0969 24.8436 37.0362 24.8721 36.9693C24.9005 36.9025 24.9151 36.8309 24.9151 36.7585V33.1452C24.9151 32.3739 24.6007 31.6342 24.0409 31.0888C23.4812 30.5435 22.722 30.2371 21.9305 30.2371ZM23.7041 36.0437C23.7042 36.0652 23.6999 36.0865 23.6916 36.1063C23.6832 36.1262 23.6709 36.1442 23.6554 36.1594C23.6398 36.1746 23.6214 36.1867 23.601 36.195C23.5807 36.2032 23.5589 36.2074 23.5368 36.2074H22.525V33.86C22.534 33.7774 22.5251 33.6938 22.4988 33.6147C22.4725 33.5357 22.4295 33.4628 22.3725 33.401C22.3154 33.3392 22.2457 33.2898 22.1678 33.256C22.0898 33.2221 22.0055 33.2047 21.9202 33.2047C21.8349 33.2047 21.7505 33.2221 21.6726 33.256C21.5947 33.2898 21.525 33.3392 21.4679 33.401C21.4109 33.4628 21.3679 33.5357 21.3416 33.6147C21.3153 33.6938 21.3064 33.7774 21.3154 33.86V36.2074H17.6458V33.86C17.6548 33.7774 17.6459 33.6938 17.6196 33.6147C17.5934 33.5357 17.5503 33.4628 17.4933 33.401C17.4362 33.3392 17.3665 33.2898 17.2886 33.256C17.2107 33.2221 17.1263 33.2047 17.041 33.2047C16.9557 33.2047 16.8714 33.2221 16.7935 33.256C16.7155 33.2898 16.6458 33.3392 16.5888 33.401C16.5317 33.4628 16.4887 33.5357 16.4624 33.6147C16.4361 33.6938 16.4272 33.7774 16.4363 33.86V36.2074H15.4251C15.403 36.2075 15.381 36.2034 15.3605 36.1952C15.34 36.187 15.3213 36.175 15.3056 36.1598C15.2898 36.1446 15.2773 36.1265 15.2687 36.1066C15.2602 36.0867 15.2557 36.0653 15.2556 36.0437V33.0193C15.2557 32.7985 15.3004 32.5798 15.3873 32.3759C15.4741 32.1719 15.6013 31.9866 15.7616 31.8305C15.9219 31.6744 16.1122 31.5507 16.3216 31.4663C16.531 31.3818 16.7555 31.3384 16.9821 31.3385H21.9791C22.4366 31.3385 22.8754 31.5156 23.1989 31.8308C23.5224 32.146 23.7041 32.5735 23.7041 33.0193V36.0437Z" fill="black"/>
    <path d="M19.5061 24.343H19.4567C19.0614 24.3369 18.6687 24.4074 18.3017 24.5506C17.9346 24.6937 17.6005 24.9066 17.3187 25.1768C17.0369 25.447 16.8131 25.7691 16.6604 26.1245C16.5076 26.4798 16.429 26.8611 16.429 27.2464C16.429 27.6316 16.5076 28.0129 16.6604 28.3683C16.8131 28.7236 17.0369 29.0457 17.3187 29.3159C17.6005 29.5861 17.9346 29.799 18.3017 29.9421C18.6687 30.0853 19.0614 30.1558 19.4567 30.1497H19.5061C20.2881 30.1375 21.0339 29.8263 21.5825 29.2831C22.1311 28.74 22.4386 28.0084 22.4386 27.2464C22.4386 26.4843 22.1311 25.7527 21.5825 25.2096C21.0339 24.6664 20.2881 24.3552 19.5061 24.343ZM20.7833 28.5001C20.6143 28.6647 20.4136 28.7952 20.1927 28.8842C19.9719 28.9732 19.7352 29.0188 19.4962 29.0186H19.4658C19.2237 29.0234 18.9831 28.9811 18.758 28.8942C18.5329 28.8072 18.3278 28.6774 18.1549 28.5123C17.9819 28.3472 17.8445 28.1501 17.7507 27.9326C17.6569 27.7151 17.6086 27.4815 17.6086 27.2456C17.6086 27.0097 17.6569 26.7761 17.7507 26.5586C17.8445 26.3411 17.9819 26.144 18.1549 25.9789C18.3278 25.8138 18.5329 25.684 18.758 25.5971C18.9831 25.5101 19.2237 25.4678 19.4658 25.4727H19.4962C19.856 25.4727 20.2078 25.5768 20.507 25.7716C20.8062 25.9664 21.0394 26.2433 21.1771 26.5672C21.3149 26.8911 21.351 27.2475 21.2809 27.5914C21.2108 27.9353 21.0376 28.2513 20.7833 28.4993V28.5001Z" fill="black"/>
    <path d="M21.9707 6.53699H17.0695C16.2779 6.53699 15.5188 6.84338 14.959 7.38876C14.3993 7.93415 14.0848 8.67385 14.0848 9.44514V13.0585C14.0848 13.2044 14.1443 13.3444 14.2503 13.4476C14.3562 13.5509 14.4999 13.6088 14.6497 13.6088H24.3875C24.4618 13.6089 24.5353 13.5948 24.6039 13.5672C24.6725 13.5395 24.7349 13.499 24.7874 13.4479C24.84 13.3968 24.8816 13.3361 24.9101 13.2693C24.9385 13.2024 24.9531 13.1308 24.9531 13.0585V9.44514C24.9531 8.67423 24.639 7.93487 24.0798 7.38955C23.5205 6.84423 22.7619 6.53758 21.9707 6.53699ZM23.7444 12.3437C23.7445 12.3651 23.7402 12.3864 23.7319 12.4062C23.7235 12.4261 23.7112 12.4442 23.6957 12.4594C23.6801 12.4746 23.6616 12.4866 23.6413 12.4949C23.621 12.5031 23.5991 12.5074 23.5771 12.5074H22.563V10.16C22.572 10.0773 22.5631 9.99373 22.5368 9.91465C22.5105 9.83558 22.4675 9.76278 22.4105 9.70097C22.3534 9.63917 22.2837 9.58974 22.2058 9.55591C22.1279 9.52208 22.0435 9.50459 21.9582 9.50459C21.8729 9.50459 21.7886 9.52208 21.7106 9.55591C21.6327 9.58974 21.563 9.63917 21.5059 9.70097C21.4489 9.76278 21.4059 9.83558 21.3796 9.91465C21.3533 9.99373 21.3444 10.0773 21.3534 10.16V12.5074H17.6838V10.16C17.6928 10.0773 17.6839 9.99373 17.6576 9.91465C17.6314 9.83558 17.5883 9.76278 17.5313 9.70097C17.4742 9.63917 17.4045 9.58974 17.3266 9.55591C17.2487 9.52208 17.1643 9.50459 17.079 9.50459C16.9937 9.50459 16.9094 9.52208 16.8315 9.55591C16.7535 9.58974 16.6838 9.63917 16.6268 9.70097C16.5697 9.76278 16.5267 9.83558 16.5004 9.91465C16.4741 9.99373 16.4652 10.0773 16.4743 10.16V12.5074H15.4631C15.441 12.5075 15.419 12.5033 15.3985 12.4951C15.378 12.4869 15.3593 12.4749 15.3436 12.4597C15.3278 12.4445 15.3153 12.4264 15.3067 12.4065C15.2982 12.3866 15.2937 12.3652 15.2936 12.3437V9.31921C15.2937 9.09839 15.3384 8.87976 15.4253 8.67579C15.5121 8.47182 15.6393 8.28651 15.7996 8.13044C15.9599 7.97437 16.1502 7.85059 16.3596 7.76618C16.569 7.68177 16.7935 7.63837 17.0201 7.63847H22.0171C22.4746 7.63847 22.9134 7.81555 23.2369 8.13075C23.5604 8.44595 23.7421 8.87345 23.7421 9.31921L23.7444 12.3437Z" fill="black"/>
    <path d="M19.544 0.642949H19.4946C19.0993 0.636796 18.7067 0.707347 18.3397 0.850491C17.9726 0.993636 17.6385 1.20651 17.3567 1.47672C17.0749 1.74693 16.8511 2.06907 16.6983 2.42438C16.5456 2.77969 16.4669 3.16106 16.4669 3.54628C16.4669 3.9315 16.5456 4.31288 16.6983 4.66818C16.8511 5.02349 17.0749 5.34563 17.3567 5.61584C17.6385 5.88605 17.9726 6.09893 18.3397 6.24207C18.7067 6.38522 19.0993 6.45577 19.4946 6.44962H19.544C20.3261 6.43744 21.0719 6.1262 21.6205 5.58305C22.1691 5.03989 22.4766 4.30836 22.4766 3.54628C22.4766 2.7842 22.1691 2.05267 21.6205 1.50952C21.0719 0.966359 20.3261 0.65512 19.544 0.642949ZM20.8212 4.79999C20.6522 4.96461 20.4515 5.09515 20.2307 5.18412C20.0098 5.27309 19.7732 5.31876 19.5342 5.3185H19.5038C19.2617 5.32333 19.021 5.28103 18.7959 5.1941C18.5708 5.10716 18.3658 4.97734 18.1928 4.81223C18.0199 4.64711 17.8825 4.45003 17.7887 4.23253C17.6949 4.01502 17.6466 3.78147 17.6466 3.54554C17.6466 3.30961 17.6949 3.07606 17.7887 2.85855C17.8825 2.64105 18.0199 2.44397 18.1928 2.27886C18.3658 2.11374 18.5708 1.98392 18.7959 1.89699C19.021 1.81005 19.2617 1.76776 19.5038 1.77258H19.5342C19.8942 1.77252 20.2461 1.8765 20.5454 2.07135C20.8448 2.2662 21.0781 2.54318 21.2159 2.86725C21.3537 3.19132 21.3897 3.54792 21.3195 3.89195C21.2492 4.23598 21.0758 4.55198 20.8212 4.79999Z" fill="black"/>
    <path d="M35.3508 18.3867H30.4549C29.6633 18.3867 28.904 18.6931 28.3442 19.2385C27.7843 19.7838 27.4697 20.5235 27.4695 21.2949V24.9082C27.4695 25.0542 27.529 25.1942 27.6349 25.2974C27.7409 25.4006 27.8845 25.4586 28.0343 25.4586H37.7729C37.8472 25.4587 37.9207 25.4445 37.9893 25.4169C38.0579 25.3893 38.1203 25.3488 38.1728 25.2976C38.2254 25.2465 38.267 25.1858 38.2955 25.119C38.3239 25.0522 38.3385 24.9805 38.3385 24.9082V21.2949C38.3385 20.9127 38.2612 20.5343 38.1111 20.1813C37.9609 19.8283 37.7408 19.5075 37.4633 19.2374C37.1858 18.9674 36.8564 18.7532 36.4939 18.6072C36.1315 18.4613 35.743 18.3863 35.3508 18.3867ZM37.1245 24.1934C37.1245 24.2367 37.1069 24.2782 37.0755 24.3089C37.0442 24.3396 37.0016 24.3569 36.9572 24.3571H35.9484V22.0097C35.9569 21.9273 35.9475 21.8441 35.921 21.7654C35.8944 21.6867 35.8513 21.6144 35.7942 21.5529C35.7372 21.4915 35.6676 21.4424 35.5899 21.4089C35.5123 21.3753 35.4282 21.3579 35.3432 21.3579C35.2582 21.3579 35.1742 21.3753 35.0965 21.4089C35.0188 21.4424 34.9492 21.4915 34.8922 21.5529C34.8352 21.6144 34.792 21.6867 34.7655 21.7654C34.7389 21.8441 34.7296 21.9273 34.7381 22.0097V24.3571H31.0692V22.0097C31.0777 21.9273 31.0683 21.8441 31.0418 21.7654C31.0153 21.6867 30.9721 21.6144 30.9151 21.5529C30.858 21.4915 30.7884 21.4424 30.7108 21.4089C30.6331 21.3753 30.549 21.3579 30.464 21.3579C30.3791 21.3579 30.295 21.3753 30.2173 21.4089C30.1396 21.4424 30.07 21.4915 30.013 21.5529C29.956 21.6144 29.9128 21.6867 29.8863 21.7654C29.8597 21.8441 29.8504 21.9273 29.8589 22.0097V24.3571H28.8485C28.8264 24.3572 28.8044 24.353 28.7839 24.3449C28.7634 24.3367 28.7447 24.3247 28.729 24.3095C28.7132 24.2942 28.7007 24.2762 28.6922 24.2563C28.6836 24.2363 28.6791 24.215 28.679 24.1934V21.1689C28.6792 20.7231 28.8611 20.2956 29.1847 19.9804C29.5084 19.6653 29.9472 19.4882 30.4047 19.4882H35.4025C35.86 19.4882 36.2988 19.6653 36.6223 19.9805C36.9458 20.2957 37.1275 20.7232 37.1275 21.1689L37.1245 24.1934Z" fill="black"/>
    <path d="M32.9288 12.4926H32.8801C32.4848 12.4864 32.0922 12.557 31.7252 12.7001C31.3581 12.8432 31.024 13.0561 30.7422 13.3263C30.4604 13.5965 30.2366 13.9187 30.0838 14.274C29.9311 14.6293 29.8524 15.0107 29.8524 15.3959C29.8524 15.7811 29.9311 16.1625 30.0838 16.5178C30.2366 16.8731 30.4604 17.1952 30.7422 17.4655C31.024 17.7357 31.3581 17.9485 31.7252 18.0917C32.0922 18.2348 32.4848 18.3054 32.8801 18.2992H32.9288C33.7108 18.2871 34.4566 17.9758 35.0052 17.4327C35.5538 16.8895 35.8613 16.158 35.8613 15.3959C35.8613 14.6338 35.5538 13.9023 35.0052 13.3591C34.4566 12.816 33.7108 12.5047 32.9288 12.4926ZM34.206 16.6496C34.0371 16.8144 33.8364 16.945 33.6155 17.034C33.3947 17.1229 33.1579 17.1685 32.9189 17.1681H32.8893C32.6472 17.1729 32.4065 17.1306 32.1814 17.0437C31.9563 16.9568 31.7513 16.8269 31.5783 16.6618C31.4054 16.4967 31.268 16.2996 31.1742 16.0821C31.0804 15.8646 31.0321 15.6311 31.0321 15.3952C31.0321 15.1592 31.0804 14.9257 31.1742 14.7082C31.268 14.4907 31.4054 14.2936 31.5783 14.1285C31.7513 13.9634 31.9563 13.8335 32.1814 13.7466C32.4065 13.6597 32.6472 13.6174 32.8893 13.6222H32.9181C33.278 13.6223 33.6297 13.7263 33.9289 13.9211C34.2281 14.1159 34.4613 14.3928 34.5991 14.7167C34.7368 15.0406 34.7729 15.3971 34.7028 15.741C34.6327 16.0849 34.4595 16.4008 34.2052 16.6489L34.206 16.6496Z" fill="black"/>
    <path d="M8.54576 18.3867H3.6491C3.25691 18.3864 2.86852 18.4614 2.50609 18.6074C2.14367 18.7534 1.81432 18.9676 1.53687 19.2377C1.25941 19.5077 1.03929 19.8284 0.889066 20.1814C0.738847 20.5344 0.661477 20.9127 0.661377 21.2949V24.9082C0.661377 25.0542 0.720888 25.1942 0.826819 25.2974C0.932749 25.4006 1.07642 25.4586 1.22623 25.4586H10.9648C11.0391 25.4587 11.1126 25.4445 11.1812 25.4169C11.2498 25.3893 11.3122 25.3487 11.3647 25.2976C11.4173 25.2465 11.4589 25.1858 11.4874 25.119C11.5158 25.0522 11.5304 24.9805 11.5304 24.9082V21.2949C11.5304 20.5236 11.216 19.7839 10.6562 19.2385C10.0965 18.6931 9.33735 18.3867 8.54576 18.3867ZM10.3194 24.1934C10.3194 24.2367 10.3018 24.2782 10.2704 24.3089C10.2391 24.3396 10.1966 24.3569 10.1521 24.3571H9.14027V22.0097C9.14876 21.9273 9.13942 21.8441 9.11288 21.7654C9.08633 21.6867 9.04316 21.6144 8.98614 21.5529C8.92912 21.4915 8.85953 21.4424 8.78184 21.4089C8.70416 21.3753 8.62011 21.3579 8.53512 21.3579C8.45013 21.3579 8.36608 21.3753 8.2884 21.4089C8.21071 21.4424 8.14112 21.4915 8.0841 21.5529C8.02708 21.6144 7.98391 21.6867 7.95736 21.7654C7.93082 21.8441 7.92148 21.9273 7.92997 22.0097V24.3571H4.26108V22.0097C4.26957 21.9273 4.26024 21.8441 4.2337 21.7654C4.20715 21.6867 4.16397 21.6144 4.10696 21.5529C4.04994 21.4915 3.98034 21.4424 3.90266 21.4089C3.82498 21.3753 3.74093 21.3579 3.65594 21.3579C3.57095 21.3579 3.4869 21.3753 3.40922 21.4089C3.33153 21.4424 3.26194 21.4915 3.20492 21.5529C3.1479 21.6144 3.10473 21.6867 3.07818 21.7654C3.05163 21.8441 3.0423 21.9273 3.05079 22.0097V24.3571H2.04044C2.01828 24.3572 1.99631 24.353 1.9758 24.3449C1.95528 24.3367 1.93662 24.3247 1.92088 24.3094C1.90514 24.2942 1.89262 24.2762 1.88405 24.2563C1.87547 24.2363 1.87101 24.215 1.87091 24.1934V21.1689C1.87111 20.7231 2.05302 20.2956 2.37663 19.9804C2.70025 19.6653 3.13908 19.4882 3.59664 19.4882H8.59442C9.05191 19.4882 9.49066 19.6653 9.81416 19.9805C10.1377 20.2957 10.3194 20.7232 10.3194 21.1689V24.1934Z" fill="black"/>
    <path d="M6.12068 12.4926H6.07203C5.67672 12.4864 5.2841 12.557 4.91705 12.7001C4.55 12.8432 4.21585 13.0561 3.93406 13.3263C3.65228 13.5965 3.42849 13.9187 3.27574 14.274C3.12298 14.6293 3.04431 15.0107 3.04431 15.3959C3.04431 15.7811 3.12298 16.1625 3.27574 16.5178C3.42849 16.8731 3.65228 17.1952 3.93406 17.4655C4.21585 17.7357 4.55 17.9485 4.91705 18.0917C5.2841 18.2348 5.67672 18.3054 6.07203 18.2992H6.12068C6.90271 18.2871 7.64849 17.9758 8.19711 17.4327C8.74572 16.8895 9.0532 16.158 9.0532 15.3959C9.0532 14.6338 8.74572 13.9023 8.19711 13.3591C7.64849 12.816 6.90271 12.5047 6.12068 12.4926ZM7.39787 16.6496C7.22895 16.8144 7.0283 16.945 6.80742 17.034C6.58655 17.1229 6.34981 17.1685 6.1108 17.1681H6.08191C5.83982 17.1729 5.59918 17.1306 5.37408 17.0437C5.14899 16.9568 4.94395 16.8269 4.771 16.6618C4.59804 16.4967 4.46064 16.2996 4.36683 16.0821C4.27303 15.8646 4.22471 15.6311 4.22471 15.3952C4.22471 15.1592 4.27303 14.9257 4.36683 14.7082C4.46064 14.4907 4.59804 14.2936 4.771 14.1285C4.94395 13.9634 5.14899 13.8335 5.37408 13.7466C5.59918 13.6597 5.83982 13.6174 6.08191 13.6222H6.11156C6.4714 13.6223 6.82315 13.7263 7.12233 13.9211C7.42152 14.1159 7.65472 14.3928 7.79247 14.7167C7.93021 15.0406 7.96631 15.3971 7.89621 15.741C7.82612 16.0849 7.65296 16.4008 7.39863 16.6489L7.39787 16.6496Z" fill="black"/>
    <path d="M14.3182 5.60671C11.6947 6.56728 9.40726 8.23768 7.72469 10.4215C7.64633 10.5238 7.53045 10.5926 7.40125 10.6136C7.27205 10.6346 7.13953 10.6061 7.03136 10.5341C6.9754 10.4967 6.92774 10.4487 6.89125 10.393C6.85475 10.3373 6.83016 10.2749 6.81895 10.2097C6.80774 10.1445 6.81013 10.0778 6.82599 10.0135C6.84185 9.94922 6.87084 9.88871 6.91124 9.83559C8.70874 7.49315 11.1557 5.69981 13.9639 4.6667C14.0273 4.6439 14.0946 4.63366 14.1621 4.6366C14.2296 4.63954 14.2957 4.6556 14.3567 4.68383C14.4177 4.71206 14.4723 4.75189 14.5172 4.80098C14.5622 4.85007 14.5966 4.90742 14.6185 4.96967L14.6231 4.983C14.666 5.10516 14.6581 5.23883 14.6011 5.3554C14.5441 5.47196 14.4426 5.56217 14.3182 5.60671Z" fill="black"/>
    <path d="M31.9937 10.5704L31.9504 10.5993C31.8423 10.6719 31.7094 10.7005 31.58 10.6792C31.4505 10.6579 31.3347 10.5883 31.257 10.4852C29.5968 8.3053 27.3357 6.62925 24.7365 5.65189C24.6137 5.60648 24.5137 5.51639 24.4577 5.4006C24.4017 5.28482 24.394 5.15236 24.4362 5.03115L24.4484 4.99633C24.4702 4.93383 24.5047 4.87624 24.5498 4.82699C24.595 4.77774 24.6498 4.73783 24.7111 4.70964C24.7724 4.68145 24.8388 4.66555 24.9065 4.66288C24.9742 4.66021 25.0418 4.67083 25.1052 4.69411C27.8992 5.73674 30.3307 7.53294 32.1153 9.87263C32.1555 9.92581 32.1843 9.98634 32.2 10.0506C32.2157 10.1149 32.2179 10.1816 32.2065 10.2467C32.1952 10.3118 32.1705 10.374 32.1339 10.4296C32.0974 10.4853 32.0497 10.5331 31.9937 10.5704Z" fill="black"/>
    <path d="M12.0878 31.9178L12.0832 31.9259C12.0502 31.9836 12.0056 32.0342 11.9522 32.0747C11.8987 32.1152 11.8374 32.1448 11.772 32.1618C11.7065 32.1788 11.6382 32.1828 11.5711 32.1736C11.5041 32.1644 11.4396 32.1421 11.3815 32.1082C9.62966 31.0748 8.10061 29.7196 6.87941 28.1178C6.83919 28.0646 6.81037 28.004 6.79469 27.9396C6.77901 27.8753 6.77678 27.8086 6.78813 27.7434C6.79948 27.6782 6.82418 27.6159 6.86076 27.5602C6.89734 27.5046 6.94505 27.4566 7.00105 27.4193C7.10921 27.3469 7.24202 27.3184 7.3714 27.3396C7.50078 27.3609 7.6166 27.4304 7.69438 27.5334C8.83723 29.0278 10.2674 30.2915 11.9053 31.2541C12.0183 31.3199 12.1006 31.426 12.1346 31.5499C12.1687 31.6738 12.1519 31.8058 12.0878 31.9178Z" fill="black"/>
    <path d="M32.1487 28.083C30.9375 29.6824 29.4194 31.0378 27.6785 32.0741C27.6205 32.1085 27.556 32.1311 27.4888 32.1406C27.4216 32.1501 27.3531 32.1463 27.2875 32.1294C27.2218 32.1126 27.1603 32.083 27.1067 32.0424C27.0531 32.0018 27.0084 31.9511 26.9753 31.8933L26.9548 31.8571C26.8908 31.7456 26.8737 31.6143 26.907 31.4908C26.9403 31.3673 27.0215 31.2612 27.1335 31.1948C28.7512 30.2263 30.1618 28.9627 31.2881 27.4733C31.3657 27.3698 31.4817 27.2997 31.6114 27.278C31.7411 27.2563 31.8744 27.2846 31.983 27.3571L32.0271 27.3867C32.0828 27.4239 32.1303 27.4717 32.1668 27.5272C32.2032 27.5827 32.2278 27.6448 32.2392 27.7097C32.2505 27.7747 32.2483 27.8412 32.2328 27.9053C32.2173 27.9694 32.1887 28.0298 32.1487 28.083Z" fill="black"/>
  </g>
  <defs>
    <clipPath id="clip0_4293_22140">
      <rect width="39" height="38" fill="white"/>
    </clipPath>
  </defs>
</svg>