<svg xmlns="http://www.w3.org/2000/svg" width="60" height="38" viewBox="0 0 60 38" fill="none">
  <g clip-path="url(#clip0_4330_952)">
    <path d="M19.2613 27.0847V37.9999H16.6822V29.3056C16.6822 29.1594 16.624 29.0192 16.5204 28.9158C16.4168 28.8124 16.2763 28.7543 16.1298 28.7543C15.9833 28.7543 15.8428 28.8124 15.7392 28.9158C15.6356 29.0192 15.5774 29.1594 15.5774 29.3056V37.9999H3.68389V29.3056C3.68389 29.1594 3.6257 29.0192 3.52211 28.9158C3.41852 28.8124 3.27802 28.7543 3.13152 28.7543C2.98503 28.7543 2.84453 28.8124 2.74094 28.9158C2.63735 29.0192 2.57915 29.1594 2.57915 29.3056V37.9999H0.0012207V27.0847C0.00130135 26.5703 0.168021 26.0697 0.476506 25.6576C0.78499 25.2455 1.2187 24.944 1.71294 24.798L7.94404 22.9606L7.37912 32.532L7.85366 33.307L9.62814 36.2057L11.4026 33.307L11.8772 32.532L11.3122 22.9606L17.5446 24.7999C18.0395 24.9449 18.4741 25.2457 18.7835 25.6575C19.0929 26.0693 19.2605 26.57 19.2613 27.0847Z" fill="#231F20"/>
    <path d="M10.7386 32.2106L9.81525 33.7192L9.63071 34.0205L9.44616 33.7192L8.52283 32.2106L9.08775 22.6254C9.44563 22.541 9.81829 22.541 10.1762 22.6254L10.7386 32.2106Z" fill="#231F20"/>
    <path d="M9.63067 21.4245C11.4961 21.4245 13.0083 19.3281 13.0083 16.7422C13.0083 14.1562 11.4961 12.0598 9.63067 12.0598C7.76526 12.0598 6.25305 14.1562 6.25305 16.7422C6.25305 19.3281 7.76526 21.4245 9.63067 21.4245Z" fill="#231F20"/>
    <path d="M59.7143 27.0847V37.9999H57.1351V29.3056C57.1351 29.1594 57.0769 29.0192 56.9733 28.9158C56.8697 28.8124 56.7292 28.7543 56.5827 28.7543C56.4362 28.7543 56.2957 28.8124 56.1921 28.9158C56.0885 29.0192 56.0303 29.1594 56.0303 29.3056V37.9999H44.1368V29.3056C44.1368 29.1594 44.0786 29.0192 43.975 28.9158C43.8714 28.8124 43.7309 28.7543 43.5844 28.7543C43.4379 28.7543 43.2974 28.8124 43.1939 28.9158C43.0903 29.0192 43.0321 29.1594 43.0321 29.3056V37.9999H40.4529V27.0847C40.453 26.5703 40.6197 26.0697 40.9282 25.6576C41.2366 25.2455 41.6704 24.944 42.1646 24.798L48.3963 22.9606L47.8314 32.532L48.3059 33.307L50.0804 36.2057L51.8549 33.307L52.3295 32.532L51.7645 22.9606L58 24.798C58.4947 24.9435 58.929 25.2448 59.238 25.657C59.5469 26.0691 59.714 26.57 59.7143 27.0847Z" fill="#231F20"/>
    <path d="M51.1915 32.2106L50.2681 33.7192L50.0836 34.0205L49.899 33.7192L48.9757 32.2106L49.5406 22.6254C49.8985 22.541 50.2712 22.541 50.6291 22.6254L51.1915 32.2106Z" fill="#231F20"/>
    <path d="M50.0835 21.4245C51.949 21.4245 53.4612 19.3281 53.4612 16.7422C53.4612 14.1562 51.949 12.0598 50.0835 12.0598C48.2181 12.0598 46.7059 14.1562 46.7059 16.7422C46.7059 19.3281 48.2181 21.4245 50.0835 21.4245Z" fill="#231F20"/>
    <path d="M30.9648 20.1508L30.0414 21.6594L29.8569 21.9582L29.6723 21.6569L28.7496 20.1508L29.3146 10.5656C29.6724 10.4812 30.0451 10.4812 30.403 10.5656L30.9648 20.1508Z" fill="#231F20"/>
    <path d="M29.8569 9.36468C31.7223 9.36468 33.2345 7.26832 33.2345 4.68234C33.2345 2.09635 31.7223 0 29.8569 0C27.9915 0 26.4792 2.09635 26.4792 4.68234C26.4792 7.26832 27.9915 9.36468 29.8569 9.36468Z" fill="#231F20"/>
    <path d="M39.4876 15.0249V30.4202C39.4801 30.7566 39.341 31.0768 39.1 31.3121C38.8589 31.5474 38.5352 31.6792 38.198 31.6792C37.8608 31.6792 37.537 31.5474 37.296 31.3121C37.055 31.0768 36.9158 30.7566 36.9084 30.4202V17.2458C36.9084 17.0996 36.8502 16.9594 36.7466 16.856C36.643 16.7526 36.5025 16.6945 36.356 16.6945C36.2095 16.6945 36.069 16.7526 35.9654 16.856C35.8618 16.9594 35.8036 17.0996 35.8036 17.2458V38H30.4093V32.5132C30.4093 32.367 30.3511 32.2268 30.2475 32.1234C30.1439 32.02 30.0034 31.9619 29.8569 31.9619C29.7104 31.9619 29.5699 32.02 29.4663 32.1234C29.3627 32.2268 29.3045 32.367 29.3045 32.5132V38H23.9101V17.2458C23.9101 17.0996 23.8519 16.9594 23.7483 16.856C23.6448 16.7526 23.5043 16.6945 23.3578 16.6945C23.2113 16.6945 23.0708 16.7526 22.9672 16.856C22.8636 16.9594 22.8054 17.0996 22.8054 17.2458V30.4202C22.7979 30.7566 22.6588 31.0768 22.4178 31.3121C22.1767 31.5474 21.853 31.6792 21.5158 31.6792C21.1786 31.6792 20.8548 31.5474 20.6138 31.3121C20.3728 31.0768 20.2336 30.7566 20.2262 30.4202V15.0249C20.2263 14.5105 20.393 14.0099 20.7015 13.5978C21.01 13.1857 21.4437 12.8842 21.9379 12.7383L28.1703 10.8989L27.6054 20.4703L28.0799 21.2453L29.8544 24.144L31.6289 21.2453L32.1034 20.4703L31.5385 10.8989L37.7708 12.7383C38.266 12.8833 38.7008 13.1844 39.0103 13.5966C39.3197 14.0088 39.4872 14.5099 39.4876 15.0249Z" fill="#231F20"/>
  </g>
  <defs>
    <clipPath id="clip0_4330_952">
      <rect width="59.7143" height="38" fill="white"/>
    </clipPath>
  </defs>
</svg>