<svg xmlns="http://www.w3.org/2000/svg" width="81" height="60" viewBox="0 0 81 60" fill="none">
  <g clip-path="url(#clip0_3291_49)">
    <path d="M49.8029 9.14458C49.8029 12.8888 47.5311 16.1076 44.278 17.5221C43.4934 17.863 42.6517 18.0991 41.7712 18.2123C41.3785 18.263 40.9776 18.2892 40.5708 18.2892C40.1641 18.2892 39.7632 18.263 39.3701 18.2123C38.464 18.0961 37.5992 17.8495 36.795 17.4922C33.5787 16.0625 31.3387 12.8626 31.3387 9.14458C31.3387 4.09438 35.4719 0 40.5708 0C45.6694 0 49.8029 4.09438 49.8029 9.14458Z" fill="#2086D0"/>
    <path d="M64.9467 20.9073C68.9151 20.9073 72.1321 17.7208 72.1321 13.7901C72.1321 9.85935 68.9151 6.67285 64.9467 6.67285C60.9783 6.67285 57.7614 9.85935 57.7614 13.7901C57.7614 17.7208 60.9783 20.9073 64.9467 20.9073Z" fill="#2086D0"/>
    <path d="M80.1775 31.499V41.6302H74.8952V32.6204C74.8952 31.888 74.2957 31.2941 73.5563 31.2941C72.8169 31.2941 72.2174 31.888 72.2174 32.6204V41.6302H61.55V29.8357C61.55 27.4688 60.7462 25.2877 59.3937 23.5459H72.1483C76.5825 23.5459 80.1775 27.1064 80.1775 31.499Z" fill="#2086D0"/>
    <path d="M16.0534 20.9073C20.0218 20.9073 23.2387 17.7208 23.2387 13.7901C23.2387 9.85935 20.0218 6.67285 16.0534 6.67285C12.085 6.67285 8.86804 9.85935 8.86804 13.7901C8.86804 17.7208 12.085 20.9073 16.0534 20.9073Z" fill="#2086D0"/>
    <path d="M0.822632 31.499V41.6302H6.10494V32.6204C6.10494 31.888 6.70446 31.2941 7.44385 31.2941C8.18324 31.2941 8.78276 31.888 8.78276 32.6204V41.6302H19.4501V29.8357C19.4501 27.4688 20.2539 25.2877 21.6065 23.5459H8.85184C4.41765 23.5459 0.822632 27.1064 0.822632 31.499Z" fill="#2086D0"/>
    <path d="M45.2413 28.8838C45.0076 28.8838 44.7756 28.8901 44.545 28.9024C43.6653 28.9484 42.8099 29.0827 41.9857 29.2956H41.9853C40.9887 29.5528 40.0396 29.9253 39.1526 30.398C38.3574 30.8216 37.6129 31.3259 36.9289 31.8995C34.142 34.2377 32.3728 37.7293 32.3728 41.6303C32.3728 42.1198 32.4005 42.603 32.4551 43.0777C33.1804 49.436 38.6286 54.3768 45.2413 54.3768C51.854 54.3768 57.3022 49.436 58.0275 43.0777C58.082 42.603 58.1098 42.1198 58.1098 41.6303C58.1098 34.5908 52.3482 28.8838 45.2413 28.8838ZM54.5565 43.0777C53.8542 47.548 49.9509 50.9691 45.2413 50.9691C40.5312 50.9691 36.6279 47.548 35.9256 43.0777C35.8514 42.6059 35.813 42.1227 35.813 41.6303C35.813 39.4652 36.5567 37.4725 37.8052 35.8887V35.8883C39.3125 33.9762 41.555 32.6601 44.1117 32.3581V32.3577C44.4819 32.3138 44.8588 32.2914 45.2413 32.2914C50.4481 32.2914 54.6691 36.4728 54.6691 41.6303C54.6691 42.1227 54.6307 42.6059 54.5565 43.0777Z" fill="#2086D0"/>
    <path d="M45.2413 34.2549C44.6981 34.2549 44.1689 34.3123 43.6585 34.4221C41.3034 34.9269 39.3629 36.5356 38.4171 38.6741V38.6745C38.0167 39.5796 37.7946 40.5798 37.7946 41.631C37.7946 42.1265 37.844 42.6105 37.9383 43.0785C38.6171 46.4591 41.6288 49.0072 45.2413 49.0072C48.8538 49.0072 51.8655 46.4591 52.5443 43.0785C52.6386 42.6105 52.688 42.1265 52.688 41.631C52.688 37.5573 49.354 34.2549 45.2413 34.2549ZM49.574 39.55L44.0005 45.0707C43.8167 45.2528 43.5762 45.3432 43.3357 45.3419H43.331C43.0918 45.3419 42.8526 45.2515 42.6701 45.0707L39.8963 42.3233C39.5317 41.9617 39.5317 41.3759 39.8963 41.0144C40.0788 40.8336 40.318 40.7432 40.5572 40.7432C40.7964 40.7432 41.0357 40.8336 41.2177 41.0144L43.3353 43.1118L48.2526 38.2411C48.6176 37.8796 49.209 37.8796 49.574 38.2411C49.7565 38.4219 49.8477 38.6589 49.8477 38.8958C49.8477 39.1323 49.7565 39.3693 49.574 39.55Z" fill="#2086D0"/>
    <path d="M36.4335 29.6443L36.5673 30.2538C33.0934 32.856 30.8488 36.9837 30.8488 41.6306H29.9448V32.6207C29.9448 31.8883 29.3453 31.2945 28.6059 31.2945C27.8666 31.2945 27.267 31.8883 27.267 32.6207V41.6306H22.1284V31.2835C22.1284 25.5808 26.7954 20.958 32.5523 20.958H35.7077L37.3673 25.3937L36.4335 29.6443Z" fill="#2086D0"/>
    <path d="M42.5885 20.958L41.6321 23.5141H39.509L38.5526 20.958H42.5885Z" fill="#2086D0"/>
    <path d="M41.6611 27.8192C40.8066 28.0359 39.9823 28.3281 39.1969 28.6893L39.5103 27.2621L39.7559 26.1445H41.2935L41.5387 27.2621L41.6611 27.8192Z" fill="#2086D0"/>
    <path d="M59.0132 31.2835V37.4783C57.2185 31.6303 51.7315 27.3745 45.2412 27.3745C44.8967 27.3745 44.5551 27.3864 44.217 27.41L43.7445 25.2589L45.3538 20.958H48.5889C54.3458 20.958 59.0132 25.5808 59.0132 31.2835Z" fill="#2086D0"/>
    <path d="M62.7059 58.9698C61.3184 60.3441 59.0691 60.3441 57.6816 58.9698L53.0573 54.3888L58.0816 49.4121L62.7059 53.9926C64.093 55.3674 64.093 57.5954 62.7059 58.9698Z" fill="#2086D0"/>
  </g>
  <defs>
    <clipPath id="clip0_3291_49">
      <rect width="79.3548" height="60" fill="white" transform="translate(0.822632)"/>
    </clipPath>
  </defs>
</svg>