<svg xmlns="http://www.w3.org/2000/svg" width="50" height="50" viewBox="0 0 50 50" fill="none">
    <mask id="mask0_3291_3057" style="mask-type:alpha" maskUnits="userSpaceOnUse" x="0" y="0" width="50" height="50">
        <rect x="0.0499268" y="0.5" width="49.5" height="49.5" fill="#D9D9D9"/>
    </mask>
    <g mask="url(#mask0_3291_3057)">
        <path d="M27.7446 42.0857C27.3986 39.6654 27.9344 37.2012 29.2543 35.1431C30.5742 33.085 32.5902 31.5702 34.9342 30.8751C35.395 30.7163 35.8064 30.4403 36.1281 30.0742C44.3928 20.5038 46.3778 28.4573 38.474 33.7966" stroke="#212529" stroke-linecap="round" stroke-linejoin="round"/>
        <path d="M43.2941 25.9895L43.2918 20.4211C43.2859 20.1477 43.3347 19.8758 43.4353 19.6214C43.5358 19.367 43.6862 19.1353 43.8776 18.9398C44.0689 18.7443 44.2973 18.5889 44.5495 18.4829C44.8016 18.3768 45.0724 18.3222 45.346 18.3222C45.8909 18.3222 46.4135 18.5387 46.7989 18.924C47.1842 19.3094 47.4007 19.832 47.4007 20.3769L47.4007 28.7135C47.4007 30.6323 46.6384 32.4725 45.2817 33.8293L37.0226 42.0883" stroke="#212529" stroke-linecap="round" stroke-linejoin="round"/>
        <path d="M26.0326 43.6197V46.5766C26.0326 47.4231 26.7189 48.1094 27.5654 48.1094H37.808C38.6545 48.1094 39.3408 47.4231 39.3408 46.5766V43.6197C39.3408 42.7732 38.6545 42.0869 37.808 42.0869H27.5654C26.7189 42.0869 26.0326 42.7732 26.0326 43.6197Z" stroke="#212529" stroke-linecap="round" stroke-linejoin="round"/>
        <path d="M21.4814 42.0857C21.8275 39.6654 21.2917 37.2012 19.9718 35.1431C18.6519 33.085 16.6359 31.5702 14.2918 30.8751C13.8311 30.7163 13.4197 30.4403 13.098 30.0742C4.83329 20.5038 2.8483 28.4573 10.752 33.7966" stroke="#212529" stroke-linecap="round" stroke-linejoin="round"/>
        <path d="M5.93201 25.9895L5.9343 20.4211C5.94019 20.1477 5.89141 19.8758 5.79082 19.6214C5.69023 19.367 5.53986 19.1353 5.34852 18.9398C5.15719 18.7443 4.92874 18.5889 4.67659 18.4829C4.42443 18.3768 4.15363 18.3222 3.88009 18.3222C3.33515 18.3222 2.81253 18.5387 2.42721 18.924C2.04188 19.3094 1.8254 19.832 1.8254 20.3769L1.8254 28.7135C1.82541 30.6323 2.58764 32.4725 3.94442 33.8293L12.2034 42.0883" stroke="#212529" stroke-linecap="round" stroke-linejoin="round"/>
        <path d="M23.1943 43.6197V46.5766C23.1943 47.4231 22.5081 48.1094 21.6615 48.1094H11.4189C10.5724 48.1094 9.88614 47.4231 9.88614 46.5766V43.6197C9.88614 42.7732 10.5724 42.0869 11.4189 42.0869H21.6615C22.5081 42.0869 23.1943 42.7732 23.1943 43.6197Z" stroke="#212529" stroke-linecap="round" stroke-linejoin="round"/>
        <path d="M30.3387 1.91406H19.9684C15.4639 1.91406 12.7786 4.59944 12.7786 9.10394V19.4742C12.7786 22.9516 14.3749 25.3399 17.1841 26.2433C18.0008 26.5279 18.9413 26.6641 19.9684 26.6641H30.3387C31.3658 26.6641 32.3063 26.5279 33.1231 26.2433C35.9322 25.3399 37.5286 22.9516 37.5286 19.4742V9.10394C37.5286 4.59944 34.8432 1.91406 30.3387 1.91406ZM35.6723 19.4742C35.6723 22.1224 34.6328 23.7931 32.5414 24.4861C31.3411 22.1224 28.4948 20.4394 25.1536 20.4394C21.8123 20.4394 18.9784 22.1101 17.7657 24.4861H17.7533C15.6867 23.8178 14.6348 22.1348 14.6348 19.4866V9.10394C14.6348 5.61419 16.4787 3.77031 19.9684 3.77031H30.3387C33.8284 3.77031 35.6723 5.61419 35.6723 9.10394V19.4742Z" fill="#F7941D"/>
        <path d="M20.2035 12.1309C20.2035 10.1979 21.7705 8.63086 23.7035 8.63086H26.6035C28.5365 8.63086 30.1035 10.1979 30.1035 12.1309V14.5309C30.1035 16.74 28.3126 18.5309 26.1035 18.5309H24.2035C21.9944 18.5309 20.2035 16.74 20.2035 14.5309V12.1309Z" fill="#F7941D"/>
        <rect x="19.4963" y="11.459" width="11.3143" height="1.41429" rx="0.5" fill="#F7941D"/>
        <rect x="25.8606" y="7.92383" width="4.24286" height="1.41429" rx="0.5" transform="rotate(90 25.8606 7.92383)" fill="#F7941D"/>
    </g>
</svg>