<svg xmlns="http://www.w3.org/2000/svg" width="51" height="50" viewBox="0 0 51 50" fill="none">
    <mask id="mask0_3291_3100" style="mask-type:alpha" maskUnits="userSpaceOnUse" x="0" y="0" width="51" height="50">
        <rect x="0.650055" y="0.5" width="49.5" height="49.5" fill="#D9D9D9"/>
    </mask>
    <g mask="url(#mask0_3291_3100)">
        <path d="M28.6256 4.81836H21.3013C18.7033 4.81836 18.1295 6.11212 17.7956 7.69801L16.6166 13.3425H33.3102L32.1313 7.69801C31.7974 6.11212 31.2235 4.81836 28.6256 4.81836Z" stroke="#F7941D" stroke-linecap="round" stroke-linejoin="round"/>
        <path d="M35.3869 22.5442C35.5017 23.7649 34.5209 24.8187 33.2689 24.8187H31.3074C30.1806 24.8187 30.0241 24.3387 29.8258 23.744L29.6172 23.118C29.325 22.2625 29.1372 21.6886 27.6348 21.6886H22.2928C20.7904 21.6886 20.5713 22.3355 20.3105 23.118L20.1018 23.744C19.9036 24.3387 19.7471 24.8187 18.6202 24.8187H16.6587C15.4067 24.8187 14.426 23.7649 14.5407 22.5442L15.125 16.1901C15.2711 14.6251 15.5736 13.3418 18.3072 13.3418H31.6204C34.354 13.3418 34.6566 14.6251 34.8026 16.1901L35.3869 22.5442Z" stroke="#F7941D" stroke-linecap="round" stroke-linejoin="round"/>
        <path d="M16.6168 10.2109H15.5735" stroke="#F7941D" stroke-linecap="round" stroke-linejoin="round"/>
        <path d="M34.3539 10.2109H33.3105" stroke="#F7941D" stroke-linecap="round" stroke-linejoin="round"/>
        <path d="M24.9637 4.99414V7.08084" stroke="#F7941D" stroke-width="1.5" stroke-linecap="round" stroke-linejoin="round"/>
        <path d="M23.3987 7.08203H26.5287" stroke="#F7941D" stroke-width="1.5" stroke-linecap="round" stroke-linejoin="round"/>
        <path d="M18.7035 17.5137H21.8335" stroke="#F7941D" stroke-width="1.5" stroke-linecap="round" stroke-linejoin="round"/>
        <path d="M28.0937 17.5137H31.2237" stroke="#F7941D" stroke-width="1.5" stroke-linecap="round" stroke-linejoin="round"/>
        <path d="M12.8433 35.0283C14.3889 32.9669 16.6243 31.53 19.1413 30.98C21.6584 30.4299 24.2893 30.8033 26.5539 32.032C27.0155 32.257 27.5278 32.358 28.0403 32.3248C41.3299 31.3519 36.8825 38.7574 27.0146 36.8466" stroke="#212529" stroke-linecap="round" stroke-linejoin="round"/>
        <path d="M36.4245 34.6191L40.572 30.4683C40.7713 30.2601 41.0103 30.0938 41.2748 29.9792C41.5393 29.8646 41.824 29.804 42.1123 29.8009C42.4005 29.7978 42.6865 29.8523 42.9534 29.9612C43.2203 30.07 43.4628 30.2311 43.6666 30.4349C44.0726 30.841 44.3008 31.3917 44.3008 31.966C44.3008 32.5402 44.0726 33.0909 43.6666 33.497L37.4547 39.7089C36.0249 41.1386 34.0858 41.9419 32.0638 41.9419H19.7556" stroke="#212529" stroke-linecap="round" stroke-linejoin="round"/>
        <path d="M10.4251 34.8948L8.22189 37.0981C7.5911 37.7289 7.5911 38.7516 8.22189 39.3824L15.854 47.0145C16.4848 47.6453 17.5075 47.6453 18.1383 47.0145L20.3415 44.8112C20.9723 44.1805 20.9723 43.1577 20.3415 42.527L12.7094 34.8948C12.0786 34.2641 11.0559 34.2641 10.4251 34.8948Z" stroke="#212529" stroke-linecap="round" stroke-linejoin="round"/>
    </g>
</svg>