<svg width="51" height="50" viewBox="0 0 51 50" fill="none" xmlns="http://www.w3.org/2000/svg">
    <mask id="mask0_1930_15963" style="mask-type:alpha" maskUnits="userSpaceOnUse" x="0" y="0" width="51" height="50">
        <rect x="0.849976" y="0.5" width="49.5" height="49.5" fill="#D9D9D9"/>
    </mask>
    <g mask="url(#mask0_1930_15963)">
        <path d="M28.5448 42.0872C28.1987 39.6668 28.7346 37.2027 30.0545 35.1446C31.3744 33.0865 33.3903 31.5716 35.7344 30.8765C36.1951 30.7178 36.6066 30.4418 36.9282 30.0757C45.193 20.5052 47.1779 28.4588 39.2742 33.7981" stroke="#212529" stroke-linecap="round" stroke-linejoin="round"/>
        <path d="M44.0941 25.9906L44.0918 20.4222C44.0859 20.1488 44.1347 19.8769 44.2353 19.6225C44.3359 19.3681 44.4863 19.1364 44.6776 18.9409C44.8689 18.7454 45.0974 18.59 45.3495 18.484C45.6017 18.3779 45.8725 18.3233 46.146 18.3233C46.691 18.3233 47.2136 18.5398 47.5989 18.9251C47.9842 19.3105 48.2007 19.8331 48.2007 20.378L48.2007 28.7146C48.2007 30.6334 47.4385 32.4736 46.0817 33.8304L37.8227 42.0894" stroke="#212529" stroke-linecap="round" stroke-linejoin="round"/>
        <path d="M26.8326 43.6206V46.5774C26.8326 47.424 27.5189 48.1102 28.3654 48.1102H38.608C39.4546 48.1102 40.1408 47.424 40.1408 46.5774V43.6206C40.1408 42.774 39.4546 42.0878 38.608 42.0878H28.3654C27.5189 42.0878 26.8326 42.774 26.8326 43.6206Z" stroke="#212529" stroke-linecap="round" stroke-linejoin="round"/>
        <path d="M22.2816 42.0864C22.6277 39.6661 22.0919 37.202 20.772 35.1439C19.4521 33.0858 17.4361 31.5709 15.092 30.8758C14.6313 30.717 14.2198 30.441 13.8982 30.0749C5.63346 20.5045 3.64847 28.458 11.5522 33.7974" stroke="#212529" stroke-linecap="round" stroke-linejoin="round"/>
        <path d="M6.73218 25.9897L6.73447 20.4214C6.74036 20.1479 6.69158 19.876 6.59099 19.6216C6.4904 19.3672 6.34003 19.1355 6.14869 18.94C5.95736 18.7445 5.72891 18.5892 5.47676 18.4831C5.2246 18.3771 4.95381 18.3225 4.68026 18.3225C4.13532 18.3225 3.6127 18.5389 3.22738 18.9243C2.84205 19.3096 2.62557 19.8322 2.62557 20.3772L2.62557 28.7138C2.62558 30.6326 3.38781 32.4727 4.74459 33.8295L13.0036 42.0886" stroke="#212529" stroke-linecap="round" stroke-linejoin="round"/>
        <path d="M23.9943 43.6197V46.5766C23.9943 47.4231 23.308 48.1094 22.4615 48.1094H12.2189C11.3723 48.1094 10.6861 47.4231 10.6861 46.5766V43.6197C10.6861 42.7732 11.3723 42.0869 12.2189 42.0869H22.4615C23.308 42.0869 23.9943 42.7732 23.9943 43.6197Z" stroke="#212529" stroke-linecap="round" stroke-linejoin="round"/>
        <circle cx="25.6" cy="15.35" r="12.9357" stroke="#F7941D"/>
        <path d="M24.276 21.975V19.535L22.576 20.695L21.756 19.475L24.276 17.755V15.975L22.596 17.135L21.756 15.915L24.276 14.195V10.215H20.456V7.69497H31.096V10.215H27.256V12.155L29.076 10.895L29.916 12.115L27.256 13.935V15.715L29.056 14.475L29.896 15.695L27.256 17.495V21.975H24.276Z" fill="#F7941D"/>
    </g>
</svg>