<svg xmlns="http://www.w3.org/2000/svg" width="50" height="50" viewBox="0 0 50 50" fill="none">
    <mask id="mask0_3291_3076" style="mask-type:alpha" maskUnits="userSpaceOnUse" x="0" y="0" width="50" height="50">
        <rect width="49.5" height="49.5" transform="matrix(-1 0 0 1 49.75 0.5)" fill="#D9D9D9"/>
    </mask>
    <g mask="url(#mask0_3291_3076)">
        <path d="M34.2269 9.81641L23.6958 15.9108L13.2363 9.85219" stroke="#F7941D" stroke-linecap="round" stroke-linejoin="round"/>
        <path d="M23.6968 26.7177V15.9004" stroke="#F7941D" stroke-linecap="round" stroke-linejoin="round"/>
        <path d="M26.165 3.9021L32.5337 7.43233C33.9768 8.23141 35.1575 10.2351 35.1575 11.8809V18.6194C35.1575 20.2652 33.9768 22.2689 32.5337 23.068L26.165 26.6101C24.8053 27.3615 22.5751 27.3615 21.2155 26.6101L14.8467 23.068C13.4036 22.2689 12.2229 20.2652 12.2229 18.6194V11.8809C12.2229 10.2351 13.4036 8.23141 14.8467 7.43233L21.2155 3.89017C22.587 3.1388 24.8053 3.1388 26.165 3.9021Z" stroke="#F7941D" stroke-linecap="round" stroke-linejoin="round"/>
        <path d="M11.2211 35.4579C12.7667 33.3966 15.002 31.9597 17.5191 31.4097C20.0362 30.8596 22.6671 31.233 24.9317 32.4617C25.3933 32.6867 25.9056 32.7876 26.418 32.7545C39.7076 31.7816 35.2602 39.1871 25.3924 37.2763" stroke="#212529" stroke-linecap="round" stroke-linejoin="round"/>
        <path d="M34.8025 35.0488L38.95 30.8979C39.1494 30.6898 39.3883 30.5235 39.6528 30.4089C39.9173 30.2943 40.202 30.2337 40.4903 30.2306C40.7785 30.2275 41.0645 30.282 41.3314 30.3909C41.5983 30.4997 41.8408 30.6608 42.0446 30.8646C42.4507 31.2707 42.6788 31.8214 42.6788 32.3956C42.6788 32.9699 42.4507 33.5206 42.0446 33.9267L35.8327 40.1386C34.403 41.5683 32.4638 42.3715 30.4418 42.3715H18.1337" stroke="#212529" stroke-linecap="round" stroke-linejoin="round"/>
        <path d="M8.80291 35.3245L6.59966 37.5278C5.96888 38.1586 5.96888 39.1813 6.59966 39.8121L14.2318 47.4442C14.8626 48.075 15.8853 48.075 16.5161 47.4442L18.7193 45.2409C19.3501 44.6101 19.3501 43.5874 18.7193 42.9566L11.0872 35.3245C10.4564 34.6937 9.4337 34.6937 8.80291 35.3245Z" stroke="#212529" stroke-linecap="round" stroke-linejoin="round"/>
    </g>
</svg>