<svg xmlns="http://www.w3.org/2000/svg" width="50" height="50" viewBox="0 0 50 50" fill="none">
    <mask id="mask0_3291_3088" style="mask-type:alpha" maskUnits="userSpaceOnUse" x="0" y="0" width="50" height="50">
        <rect x="0.450073" y="0.5" width="49.5" height="49.5" fill="#D9D9D9"/>
    </mask>
    <g mask="url(#mask0_3291_3088)">
        <path d="M22.2679 15.739C24.0992 15.739 25.5837 14.2544 25.5837 12.4232C25.5837 10.5919 24.0992 9.10742 22.2679 9.10742C20.4367 9.10742 18.9521 10.5919 18.9521 12.4232C18.9521 14.2544 20.4367 15.739 22.2679 15.739Z" stroke="#F7941D" stroke-miterlimit="10" stroke-linecap="round" stroke-linejoin="round"/>
        <path d="M11.2152 13.3953V11.45C11.2152 10.3006 12.1547 9.35003 13.3152 9.35003C15.3157 9.35003 16.1336 7.9353 15.1278 6.20005C14.5531 5.20532 14.8957 3.91217 15.9015 3.33743L17.8136 2.24323C18.6867 1.72376 19.8141 2.03323 20.3336 2.90638L20.4552 3.11638C21.4499 4.85164 23.0857 4.85164 24.0915 3.11638L24.213 2.90638C24.7325 2.03323 25.8599 1.72376 26.733 2.24323L28.6451 3.33743C29.6509 3.91217 29.9935 5.20532 29.4188 6.20005C28.413 7.9353 29.2309 9.35003 31.2314 9.35003C32.3809 9.35003 33.3314 10.2895 33.3314 11.45V13.3953C33.3314 14.5447 32.3919 15.4953 31.2314 15.4953C29.2309 15.4953 28.413 16.91 29.4188 18.6452C29.9935 19.651 29.6509 20.9331 28.6451 21.5079L26.733 22.6021C25.8599 23.1215 24.7325 22.8121 24.213 21.9389L24.0915 21.7289C23.0967 19.9937 21.4609 19.9937 20.4552 21.7289L20.3336 21.9389C19.8141 22.8121 18.6867 23.1215 17.8136 22.6021L15.9015 21.5079C14.8957 20.9331 14.5531 19.64 15.1278 18.6452C16.1336 16.91 15.3157 15.4953 13.3152 15.4953C12.1547 15.4953 11.2152 14.5447 11.2152 13.3953Z" stroke="#F7941D" stroke-miterlimit="10" stroke-linecap="round" stroke-linejoin="round"/>
        <path d="M36.9737 31.4697C36.6659 31.2744 36.3113 31.1653 35.947 31.1538C35.5826 31.1424 35.2219 31.229 34.9025 31.4045C34.583 31.5801 34.3166 31.8383 34.131 32.152C33.9454 32.4657 33.8475 32.8235 33.8474 33.1881V31.1089C33.8474 30.5692 33.633 30.0515 33.2513 29.6698C32.8696 29.2882 32.352 29.0737 31.8122 29.0737C31.2724 29.0737 30.7548 29.2882 30.3731 29.6698C29.9914 30.0515 29.777 30.5692 29.777 31.1089V29.2857C29.7757 28.7468 29.5607 28.2304 29.1792 27.8497C28.7977 27.4691 28.2807 27.2553 27.7418 27.2553C27.2028 27.2553 26.6859 27.4691 26.3044 27.8497C25.9228 28.2304 25.7078 28.7468 25.7066 29.2857V21.834C25.7066 21.2943 25.4922 20.7766 25.1105 20.3949C24.7288 20.0132 24.2111 19.7988 23.6714 19.7988C23.1316 19.7988 22.614 20.0132 22.2323 20.3949C21.8506 20.7766 21.6362 21.2943 21.6362 21.834V35.6552L21.6168 35.6591L17.7986 31.841C17.628 31.6349 17.4184 31.4645 17.1818 31.3395C16.9453 31.2145 16.6864 31.1374 16.42 31.1126C16.1536 31.0878 15.8849 31.1157 15.6294 31.1948C15.3738 31.2739 15.1363 31.4026 14.9305 31.5736C14.7247 31.7445 14.5546 31.9544 14.43 32.1912C14.3054 32.4279 14.2287 32.6869 14.2043 32.9534C14.1799 33.2198 14.2083 33.4884 14.2878 33.7439C14.3673 33.9993 14.4965 34.2366 14.6678 34.4421L21.413 44.6857C22.2142 45.9024 23.3473 46.864 24.6782 47.4565C26.009 48.0491 27.4818 48.2477 28.9221 48.029C30.3624 47.8102 31.7098 47.1832 32.8047 46.2223C33.8996 45.2613 34.6962 44.0067 35.1 42.607L37.7601 33.7347C37.8888 33.3227 37.8819 32.8803 37.7403 32.4725C37.5987 32.0648 37.33 31.7133 36.9737 31.4697Z" fill="#FAFAFA" stroke="#212529" stroke-linecap="round" stroke-linejoin="round"/>
        <path d="M25.7065 29.2852V32.0056" stroke="#212529" stroke-linecap="round" stroke-linejoin="round"/>
        <path d="M29.7766 31.1113V33.575" stroke="#212529" stroke-linecap="round" stroke-linejoin="round"/>
        <path d="M33.8473 33.1895V34.9149" stroke="#212529" stroke-linecap="round" stroke-linejoin="round"/>
    </g>
</svg>